<?xml version="1.0" encoding="UTF-8"?>
<!DOCTYPE svg PUBLIC "-//W3C//DTD SVG 1.1//EN" "http://www.w3.org/Graphics/SVG/1.1/DTD/svg11.dtd">
<!-- Creator: CorelDRAW -->
<svg xmlns="http://www.w3.org/2000/svg" xml:space="preserve" width="254mm" height="248.358mm" version="1.1" style="shape-rendering:geometricPrecision; text-rendering:geometricPrecision; image-rendering:optimizeQuality; fill-rule:evenodd; clip-rule:evenodd"
viewBox="0 0 25399.98 24835.78"
 xmlns:xlink="http://www.w3.org/1999/xlink"
 xmlns:xodm="http://www.corel.com/coreldraw/odm/2003">
 <defs>
  <style type="text/css">
   <![CDATA[
    .fil0 {fill:#00A63E;fill-rule:nonzero}
   ]]>
  </style>
 </defs>
 <g id="Layer_x0020_1">
  <metadata id="CorelCorpID_0Corel-Layer"/>
  <path class="fil0" d="M20473.17 15625.81l1667.95 -1985.51c315.31,-374.83 833.4,-557.87 1357.13,-485.12l-2361.4 3194.79c-23.15,29.76 -58.45,56.22 -100.37,71.68l-219.42 91.52c13.23,-203.94 -33.07,-412.27 -136.75,-606.29 -55.14,-102.51 -124.58,-198.4 -207.25,-282.25l0.11 1.18zm4885.89 -2189.35c-60.58,-174.19 -190.72,-313.07 -360.53,-388.05 -288.86,-125.66 -622.83,-35.31 -809.18,216.1l-2554.36 3457.2c-60.59,81.6 -140.06,148.8 -229.34,203.95 -41.92,28.69 -84.91,49.6 -134.51,70.5l-1171.84 483.95 -639.37 290.99 -849.92 388.06c-154.35,74.98 -339.52,5.54 -411.2,-147.74 -71.69,-156.58 -5.55,-341.76 152.1,-413.44l1394.57 -649.39c262.4,-122.35 418.88,-416.75 335.15,-693.44 -98.13,-320.86 -445.34,-485.13 -750.72,-364.91 -1052.81,411.2 -1728.66,604.16 -2669.03,1223.68 -2630.42,1734.09 -2924.72,4491.34 -2437.46,7248.69 48.53,272.32 281.07,472.96 557.87,472.96l2362.47 0.11c341.76,0 605.23,-301.02 558.94,-639.37l-71.68 -529.17c0,0 3701.89,-3843.01 4719.6,-4650.16 369.28,-293.23 672.43,-660.38 891.84,-1077.13l2083.64 -3968.67c84.91,-167.57 97.07,-356.05 34.14,-533.55l-1.18 -1.17zm-20998.1 2985.3l219.41 91.52c-13.22,-203.95 33.07,-412.27 136.75,-606.3 55.15,-102.5 124.59,-198.4 207.26,-282.24l-1667.96 -1985.5c-315.31,-374.83 -833.39,-557.87 -1357.13,-485.13l2361.4 3194.8c23.15,29.76 58.45,56.21 100.37,71.68l-0.1 1.17zm4377.95 693.44c-940.38,-619.52 -1616.23,-812.48 -2669.03,-1223.68 -306.46,-119.04 -652.6,44.05 -750.73,364.91 -83.73,276.69 72.75,571.09 334.08,693.44l1394.57 649.39c156.59,71.68 222.72,255.79 152.11,413.44 -71.68,154.35 -255.79,222.72 -411.2,147.74l-849.93 -388.06 -639.36 -290.99 -1171.85 -483.95c-49.6,-19.84 -92.59,-41.92 -134.51,-70.5 -89.28,-55.15 -168.64,-122.35 -229.33,-203.95l-2554.36 -3457.2c-187.42,-252.48 -520.33,-341.76 -809.18,-216.1 -169.82,74.98 -299.85,213.86 -360.54,388.05 -62.83,177.5 -50.67,365.98 34.13,533.55l2083.64 3968.67c219.42,417.81 522.57,784.96 891.85,1077.12 1018.67,806.94 4719.6,4650.16 4719.6,4650.16l-71.68 529.18c-45.22,338.46 218.24,639.37 558.94,639.37l2362.57 -0.22c276.7,0 509.34,-200.64 557.87,-472.96 487.26,-2756.07 192.97,-5514.38 -2437.45,-7248.69l-0.21 1.28zm3959.81 -11563.59c223.79,0 439.89,28.7 648.21,78.3l1316.28 -1316.28c-595.31,-288.85 -1260.06,-455.36 -1965.67,-455.36 -2493.67,0 -4515.54,2021.88 -4515.54,4515.55 0,2493.67 2021.87,4515.54 4515.54,4515.54 2493.67,0 4515.55,-2021.87 4515.55,-4515.54 0,-705.61 -166.51,-1370.36 -455.36,-1965.67l-1316.28 1316.28c49.6,208.32 78.3,425.49 78.3,648.21 0,1556.6 -1265.61,2822.21 -2822.21,2822.21 -1556.59,0 -2822.2,-1265.61 -2822.2,-2822.21 0,-1556.59 1265.61,-2822.2 2822.2,-2822.2l1.18 1.17zm7337.86 2822.31c0,-1120.11 -251.31,-2180.6 -700.06,-3129.83l-972.38 972.38c-105.81,105.81 -228.16,186.35 -360.54,243.63 217.18,598.62 340.7,1241.29 340.7,1913.82 0,3112.13 -2532.28,5644.52 -5644.52,5644.52 -3112.23,0 -5644.51,-2532.28 -5644.51,-5644.52 0,-3112.12 2532.28,-5644.51 5644.51,-5644.51 672.43,0 1315.21,124.59 1913.83,340.69 57.28,-132.26 137.81,-254.61 243.63,-360.53l973.44 -973.45c-949.23,-448.64 -2009.72,-700.06 -3129.83,-700.06 -4052.5,0 -7337.86,3285.36 -7337.86,7337.86 0,4052.51 3285.36,7337.86 7337.86,7337.86 4052.51,0 7337.86,-3285.35 7337.86,-7337.86l-2.13 0zm-4711.71 -4733.79l275.63 854.41 -2413.25 2413.24c-154.34,-51.84 -317.54,-80.43 -489.49,-80.43 -854.41,0 -1546.68,692.27 -1546.68,1546.68 0,854.41 692.27,1546.68 1546.68,1546.68 854.4,0 1546.67,-692.27 1546.67,-1546.68 0,-170.88 -28.69,-335.15 -80.42,-489.5l2413.24 -2413.24 854.4 275.63c37.44,12.16 74.99,17.6 112.43,17.6 95.9,0 189.66,-37.44 259.1,-108.05l3159.48 -3159.49c90.35,-90.35 126.83,-221.55 97.07,-345.07 -29.76,-124.59 -122.35,-223.79 -243.63,-263.47l-1235.85 -399.04 -399.04 -1235.85c-39.68,-121.28 -138.88,-213.86 -263.47,-243.62 -28.69,-6.62 -57.28,-9.93 -85.97,-9.93 -95.89,0 -189.66,37.45 -259.1,108.06l-3159.48 3159.49c-97.07,97.06 -132.27,241.38 -89.28,371.52l0.96 1.06z"/>
 </g>
</svg>
