<?xml version="1.0" encoding="UTF-8"?>
<!DOCTYPE svg PUBLIC "-//W3C//DTD SVG 1.1//EN" "http://www.w3.org/Graphics/SVG/1.1/DTD/svg11.dtd">
<!-- Creator: CorelDRAW -->
<svg xmlns="http://www.w3.org/2000/svg" xml:space="preserve" width="254mm" height="157.124mm" version="1.1" style="shape-rendering:geometricPrecision; text-rendering:geometricPrecision; image-rendering:optimizeQuality; fill-rule:evenodd; clip-rule:evenodd"
viewBox="0 0 25400 15712.43"
 xmlns:xlink="http://www.w3.org/1999/xlink"
 xmlns:xodm="http://www.corel.com/coreldraw/odm/2003">
 <defs>
  <style type="text/css">
   <![CDATA[
    .fil0 {fill:#00A63E;fill-rule:nonzero}
   ]]>
  </style>
 </defs>
 <g id="Layer_x0020_1">
  <metadata id="CorelCorpID_0Corel-Layer"/>
  <g id="_1961645295056">
   <path class="fil0" d="M25233.94 7241.62c-2580.48,-4464.5 -7380.97,-7241.62 -12533.94,-7241.62 -5152.97,0 -9953.46,2777.12 -12533.94,7241.62 -221.4,377.03 -221.4,852.17 0,1228.9 2580.48,4464.8 7380.97,7241.92 12533.94,7241.92 5152.97,0 9953.46,-2777.12 12533.94,-7242.02 221.4,-376.63 221.4,-851.77 0,-1228.8zm-12533.94 5488.97c-2687.19,0 -4874.57,-2187.39 -4874.57,-4874.57 0,-2686.78 2187.38,-4874.27 4874.57,-4874.27 2686.78,0 4874.26,2187.38 4874.26,4874.27 0,2687.18 -2187.48,4874.57 -4874.26,4874.57z"/>
   <path class="fil0" d="M12700 5439.65c-1334.9,0 -2416.77,1081.87 -2416.77,2416.47 0,1334.9 1081.87,2416.77 2416.77,2416.77 1334.6,0 2416.77,-1081.87 2416.77,-2416.77 0,-1334.6 -1082.17,-2416.47 -2416.77,-2416.47z"/>
  </g>
 </g>
</svg>
